<svg width="74" height="28" viewBox="0 0 74 28" fill="none" xmlns="http://www.w3.org/2000/svg">
<path d="M32.779 19.8841C32.779 20.2283 32.6927 20.5471 32.5199 20.8403C32.3472 21.1272 32.0913 21.3599 31.7523 21.5384C31.4133 21.7105 31.0006 21.7966 30.5145 21.7966C30.0347 21.7966 29.6061 21.7169 29.2287 21.5575C28.8512 21.3918 28.5474 21.1559 28.3171 20.8499C28.0932 20.5439 27.9652 20.1869 27.9333 19.7789H28.5956C29.0385 19.7789 29.3851 20.1547 29.6988 20.4674C29.8908 20.6459 30.1434 20.7351 30.4569 20.7351C30.7384 20.7351 30.9527 20.6618 31.0998 20.5152C31.2533 20.3622 31.3301 20.1678 31.3301 19.9319C31.3301 19.7215 31.2693 19.5494 31.1478 19.4155C31.0262 19.2752 30.8727 19.1637 30.6872 19.0808C30.5017 18.9979 30.2458 18.9023 29.9195 18.7939C29.4973 18.6537 29.1519 18.5166 28.8832 18.3827C28.6145 18.2425 28.3842 18.0417 28.1923 17.7803C28.0068 17.5189 27.9141 17.1778 27.9141 16.7571C27.9141 16.177 28.122 15.7211 28.5378 15.3896C28.96 15.0518 29.5165 14.8828 30.2074 14.8828C30.9239 14.8828 31.4932 15.0549 31.9154 15.3992C32.344 15.7434 32.5871 16.2025 32.6447 16.7762H31.867C31.4749 16.7762 31.1677 16.4488 30.8791 16.1833C30.7128 16.024 30.4857 15.9443 30.1978 15.9443C29.9483 15.9443 29.7468 16.0112 29.5933 16.1451C29.4398 16.2726 29.363 16.4606 29.363 16.7093C29.363 16.9069 29.4206 17.0727 29.5357 17.2065C29.6573 17.334 29.8076 17.4392 29.9867 17.5221C30.1722 17.605 30.4217 17.6974 30.7352 17.7994C31.1702 17.9524 31.522 18.0959 31.7907 18.2297C32.0658 18.3636 32.2992 18.5644 32.4912 18.8322C32.6831 19.0999 32.779 19.4506 32.779 19.8841Z" fill="#55A630"/>
<path d="M35.4165 16.0495V17.7994H37.8154V18.8322H35.4165V20.6491H37.0227C37.6195 20.6491 38.1033 21.1329 38.1033 21.7296H34.0636V14.9784H38.1033C38.1033 15.5699 37.6238 16.0495 37.0323 16.0495H35.4165Z" fill="#55A630"/>
<path d="M40.7458 20.6969H41.9872C42.5576 20.6969 43.02 21.1593 43.02 21.7296H39.3929V14.9784C40.1401 14.9784 40.7458 15.5842 40.7458 16.3314V20.6969Z" fill="#55A630"/>
<path d="M45.466 20.6969H46.7074C47.2778 20.6969 47.7402 21.1593 47.7402 21.7296H44.1131V14.9784C44.8603 14.9784 45.466 15.5842 45.466 16.3314V20.6969Z" fill="#55A630"/>
<path d="M50.1862 16.0495V17.7994H52.5851V18.8322H50.1862V20.6491H51.7924C52.3892 20.6491 52.873 21.1329 52.873 21.7296H48.8333V14.9784H52.873V16.0495H50.1862Z" fill="#55A630"/>
<path d="M59.1907 21.7296C58.2618 21.7296 57.4008 21.243 56.9216 20.4472L56.1105 19.0999H55.5155V20.3767C55.5155 21.1239 54.9098 21.7296 54.1626 21.7296V14.9784H56.7438C57.5306 14.9784 58.1287 15.1697 58.5382 15.5522C58.954 15.9347 59.1619 16.4383 59.1619 17.0631C59.1619 17.5731 59.0179 18.0002 58.7301 18.3445C58.4486 18.6887 58.0392 18.9182 57.5018 19.033L59.1907 21.7296ZM55.5155 18.1724H56.6286C57.4027 18.1724 57.7897 17.8313 57.7897 17.1492C57.7897 16.824 57.6937 16.5722 57.5018 16.3937C57.3163 16.2088 57.0252 16.1164 56.6286 16.1164H55.5155V18.1724Z" fill="#55A630"/>
<path d="M33.6088 5.66282C33.6088 6.45448 32.967 7.09625 32.1753 7.09625H31.5966V13.1146H29.794V7.09625H29.2362C28.4445 7.09625 27.8027 6.45448 27.8027 5.66282H33.6088Z" fill="#007F5F"/>
<path d="M40.254 13.1146C39.0294 13.1146 37.8989 12.4576 37.2927 11.3936L36.6698 10.3004H36.2611V11.3225C36.2611 12.3122 35.4587 13.1146 34.469 13.1146V5.66282H37.5292C38.1161 5.66282 38.6121 5.7647 39.0174 5.96847C39.4226 6.17225 39.7265 6.45331 39.9291 6.81167C40.1318 7.163 40.2331 7.56704 40.2331 8.02377C40.2331 8.56482 40.0829 9.02507 39.7824 9.40451C39.489 9.78395 39.0593 10.0439 38.4934 10.1845L40.254 13.1146ZM36.2611 9.06723H37.372C37.7283 9.06723 37.9903 8.98993 38.158 8.83535C38.3257 8.67373 38.4095 8.43834 38.4095 8.12917C38.4095 7.83405 38.3222 7.60217 38.1475 7.43353C37.9798 7.26489 37.7213 7.18057 37.372 7.18057H36.2611V9.06723Z" fill="#007F5F"/>
<path d="M41.1945 5.66282C42.1785 5.66282 42.9762 6.46048 42.9762 7.44445V9.96313C42.9762 10.455 43.0845 10.8309 43.3011 11.0909C43.5246 11.3509 43.846 11.4809 44.2652 11.4809C44.6845 11.4809 45.0023 11.3509 45.2189 11.0909C45.4425 10.8309 45.5543 10.455 45.5543 9.96313V7.45493C45.5543 6.46517 46.3567 5.66282 47.3464 5.66282V9.96313C47.3464 10.6658 47.2102 11.2595 46.9377 11.7444C46.6652 12.2222 46.2914 12.5841 45.8163 12.83C45.3482 13.0689 44.8172 13.1884 44.2233 13.1884C43.6294 13.1884 43.1054 13.0689 42.6513 12.83C42.1972 12.5911 41.8408 12.2292 41.5823 11.7444C41.3238 11.2595 41.1945 10.6658 41.1945 9.96313V5.66282Z" fill="#007F5F"/>
<path d="M53.9727 11.0171C53.9727 11.4106 53.8714 11.7725 53.6688 12.1027C53.4731 12.433 53.1797 12.6965 52.7884 12.8932C52.4042 13.09 51.936 13.1884 51.3841 13.1884C50.5527 13.1884 49.8679 12.9846 49.33 12.577C48.792 12.1695 48.4985 11.6003 48.4496 10.8696H49.6153C50.0363 10.8696 50.3473 11.2414 50.6505 11.5336C50.8251 11.6952 51.0452 11.776 51.3107 11.776C51.5413 11.776 51.7229 11.7128 51.8557 11.5863C51.9884 11.4598 52.0548 11.2912 52.0548 11.0804C52.0548 10.8906 51.9919 10.7325 51.8662 10.6061C51.7474 10.4796 51.5972 10.3777 51.4155 10.3004C51.2339 10.2161 50.9823 10.1177 50.6609 10.0053C50.1928 9.84367 49.8086 9.68909 49.5081 9.54153C49.2147 9.38694 48.9597 9.16209 48.7431 8.86697C48.5335 8.56482 48.4287 8.17484 48.4287 7.69703C48.4287 7.25435 48.5405 6.8714 48.764 6.54817C48.9876 6.22495 49.295 5.97901 49.6863 5.81037C50.0845 5.63471 50.5387 5.54688 51.0487 5.54688C51.8732 5.54688 52.5264 5.74362 53.0085 6.13711C53.4976 6.53061 53.7736 7.07166 53.8364 7.76027H52.5505C52.1759 7.76027 51.8956 7.43965 51.6251 7.18057C51.4854 7.03301 51.2933 6.95923 51.0487 6.95923C50.8391 6.95923 50.6679 7.01544 50.5352 7.12787C50.4094 7.2403 50.3465 7.40542 50.3465 7.62325C50.3465 7.79892 50.4024 7.94999 50.5142 8.07647C50.633 8.19592 50.7797 8.2943 50.9544 8.37159C51.1291 8.44888 51.3806 8.54726 51.709 8.66671C52.1841 8.82832 52.5718 8.98993 52.8723 9.15155C53.1727 9.30613 53.4312 9.5345 53.6478 9.83665C53.8644 10.1388 53.9727 10.5323 53.9727 11.0171Z" fill="#007F5F"/>
<path d="M60.3922 5.66282C60.3922 6.45448 59.7505 7.09625 58.9588 7.09625H58.38V13.1146H56.5774V7.09625H56.0196C55.228 7.09625 54.5862 6.45448 54.5862 5.66282H60.3922Z" fill="#007F5F"/>
<path d="M63.0445 7.09625V8.65617H65.5493V10.0158H63.0445V11.6706H64.4197C65.2172 11.6706 65.8637 12.3171 65.8637 13.1146H61.2524V5.66282H65.8637C65.8637 6.45448 65.2219 7.09625 64.4303 7.09625H63.0445Z" fill="#007F5F"/>
<path d="M73.6516 9.37289C73.6516 10.1037 73.4944 10.7536 73.18 11.3228C72.8726 11.8849 72.4254 12.3241 71.8386 12.6403C71.2587 12.9565 70.574 13.1146 69.7844 13.1146H66.9862V5.66282H69.7844C70.5809 5.66282 71.2691 5.8174 71.849 6.12657C72.4289 6.43575 72.8726 6.8714 73.18 7.43353C73.4944 7.99566 73.6516 8.64211 73.6516 9.37289ZM69.6272 11.502C70.3259 11.502 70.8674 11.3158 71.2517 10.9433C71.6429 10.5709 71.8386 10.0474 71.8386 9.37289C71.8386 8.69833 71.6429 8.17484 71.2517 7.80243C70.8674 7.43002 70.3259 7.24381 69.6272 7.24381H68.7783V11.502H69.6272Z" fill="#007F5F"/>
<g clip-path="url(#clip0_8599_6300)">
<path d="M13.4153 27.293C13.3543 27.293 13.2932 27.2854 13.2335 27.2702C10.2303 26.5075 7.52728 24.7224 5.62215 22.2438C3.71711 19.765 2.66797 16.668 2.66797 13.5234V5.86327C2.66797 5.54573 2.86187 5.26151 3.1545 5.15005L13.1521 1.34145C13.3218 1.27681 13.5089 1.27681 13.6786 1.34145L23.6761 5.15005C23.9688 5.26151 24.1627 5.54573 24.1627 5.86327V13.5234C24.1627 16.6681 23.1136 19.765 21.2085 22.2438C19.3034 24.7225 16.6003 26.5076 13.5971 27.2702C13.5375 27.2854 13.4764 27.293 13.4153 27.293Z" fill="url(#paint0_linear_8599_6300)"/>
<path d="M13.5979 27.2702C16.601 26.5075 19.3041 24.7224 21.2092 22.2438C23.1142 19.7651 24.1634 16.6681 24.1634 13.5234V5.86328C24.1634 5.54575 23.9695 5.26152 23.6769 5.15006L13.6793 1.34146C13.5944 1.30912 13.5052 1.29297 13.416 1.29297V27.293C13.4771 27.293 13.5381 27.2854 13.5979 27.2702Z" fill="url(#paint1_linear_8599_6300)"/>
<path d="M22.5791 5.91261L13.6511 2.4214C13.4996 2.36214 13.3324 2.36214 13.1809 2.4214L22.5791 5.91261ZM22.5791 5.91261C22.8405 6.01479 23.0137 6.27532 23.0137 6.5664V13.5882C23.0137 16.4708 22.0768 19.3097 20.3755 21.5819C18.6742 23.854 16.2603 25.4904 13.5784 26.1894L22.5791 5.91261ZM13.2915 26.0443L13.2915 26.0443C10.6433 25.354 8.25808 23.7376 6.57658 21.492C4.89509 19.2462 3.96836 16.4389 3.96836 13.5882V6.5664C3.96836 6.33403 4.10645 6.13091 4.30747 6.05231L4.30747 6.05231L13.2355 2.5611C13.352 2.51557 13.4801 2.51558 13.5965 2.56109L13.5965 2.5611L22.5245 6.05231L22.5245 6.05231C22.7256 6.13091 22.8637 6.33404 22.8637 6.5664V13.5882C22.8637 16.439 21.9369 19.2462 20.2554 21.492C18.574 23.7376 16.1887 25.354 13.5405 26.0443L13.5405 26.0443C13.4996 26.055 13.4578 26.0603 13.416 26.0603C13.3742 26.0603 13.3324 26.055 13.2915 26.0443Z" stroke="white" stroke-width="0.3"/>
<path d="M13.4161 24.1231C13.3368 24.1231 13.2576 24.1104 13.1814 24.0848C8.68738 22.5805 5.66797 18.3361 5.66797 13.5232V7.9746C5.66797 7.65706 5.86187 7.37284 6.1545 7.26137L13.1528 4.59536C13.3225 4.53071 13.5097 4.53071 13.6793 4.59536L20.6776 7.26137C20.9702 7.37284 21.1641 7.65706 21.1641 7.9746V13.5232C21.1641 18.3361 18.1447 22.5805 13.6507 24.0848C13.5745 24.1104 13.4953 24.1231 13.4161 24.1231Z" fill="url(#paint2_linear_8599_6300)"/>
<path d="M13.6507 24.0849C18.1447 22.5805 21.1641 18.3361 21.1641 13.5232V7.97461C21.1641 7.65707 20.9702 7.37285 20.6776 7.26139L13.6793 4.59537C13.5945 4.56302 13.5052 4.54688 13.416 4.54688V24.1231C13.4952 24.1231 13.5745 24.1104 13.6507 24.0849Z" fill="url(#paint3_linear_8599_6300)"/>
</g>
<path d="M14.044 20.7938C13.0191 19.3503 9.23992 13.9044 6.83789 12.5921C9.40006 12.1 12.4567 14.1793 13.4175 14.8354C19.1824 8.93023 21.4102 6.03078 26.2143 3.40625C17.8872 12.264 15.3251 17.5131 14.044 20.7938Z" fill="#FEBD13"/>
<path d="M13.8839 18.4973C11.0014 14.7245 9.88047 13.9044 6.83789 12.5921C9.15191 12.1271 12.3511 13.2104 13.4175 14.8354C19.1824 8.93023 21.4102 6.03078 26.2143 3.40625C18.2075 10.9518 15.1649 15.2166 13.8839 18.4973Z" fill="url(#paint4_linear_8599_6300)"/>
<defs>
<linearGradient id="paint0_linear_8599_6300" x1="7.01691" y1="1.29296" x2="13.6077" y2="27.2441" gradientUnits="userSpaceOnUse">
<stop stop-color="#55A630"/>
<stop offset="1" stop-color="#2B9348"/>
</linearGradient>
<linearGradient id="paint1_linear_8599_6300" x1="18.7897" y1="1.29297" x2="14.3488" y2="26.1858" gradientUnits="userSpaceOnUse">
<stop stop-color="#2B9348"/>
<stop offset="1" stop-color="#55A630"/>
</linearGradient>
<linearGradient id="paint2_linear_8599_6300" x1="8.08405" y1="4.5428" x2="13.5742" y2="24.0787" gradientUnits="userSpaceOnUse">
<stop stop-color="#007F5F"/>
<stop offset="1" stop-color="#007F5F"/>
</linearGradient>
<linearGradient id="paint3_linear_8599_6300" x1="17.2901" y1="4.54688" x2="13.8456" y2="24.0245" gradientUnits="userSpaceOnUse">
<stop stop-color="#55A630"/>
<stop offset="1" stop-color="#2B9348"/>
</linearGradient>
<linearGradient id="paint4_linear_8599_6300" x1="25.148" y1="3.46042" x2="13.7506" y2="16.2825" gradientUnits="userSpaceOnUse">
<stop stop-color="white"/>
<stop offset="1" stop-color="#F7FAFE"/>
</linearGradient>
<clipPath id="clip0_8599_6300">
<rect width="25.5938" height="26" fill="white" transform="translate(0.619141 1.29297)"/>
</clipPath>
</defs>
</svg>
